<svg width="232" height="232" viewBox="0 0 232 232" fill="none" xmlns="http://www.w3.org/2000/svg">
    <rect width="232" height="232" rx="116" fill="#F0F7FF" />
    <path
        d="M209.089 185.132C198.27 170.648 184.222 158.887 168.062 150.784C151.901 142.681 134.073 138.458 115.995 138.453C97.9164 138.447 80.0859 142.658 63.9202 150.751C47.7544 158.844 33.6991 170.595 22.8711 185.072C33.6437 199.623 47.6758 211.447 63.8424 219.597C80.009 227.746 97.8603 231.994 115.965 232C134.069 232.005 151.923 227.769 168.095 219.63C184.267 211.491 198.307 199.676 209.089 185.132Z"
        fill="#4A55A2" />
    <path
        d="M116.001 123.484C140.8 123.484 160.904 103.38 160.904 78.5805C160.904 53.7811 140.8 33.6772 116.001 33.6772C91.2015 33.6772 71.0977 53.7811 71.0977 78.5805C71.0977 103.38 91.2015 123.484 116.001 123.484Z"
        fill="#4A55A2" />
</svg>
    