<svg width="16" height="16" viewBox="0 0 16 16" fill="none" xmlns="http://www.w3.org/2000/svg">
    <mask id="mask0_784_48091" style="mask-type:luminance" maskUnits="userSpaceOnUse" x="0" y="0"
        width="16" height="16">
        <path fill-rule="evenodd" clip-rule="evenodd"
            d="M0.800049 0.13916H15.2V15.2453H0.800049V0.13916Z" fill="white" />
    </mask>
    <g mask="url(#mask0_784_48091)">
        <path fill-rule="evenodd" clip-rule="evenodd"
            d="M9.03061 10.1781C9.87635 10.1781 10.5647 10.8616 10.5647 11.7018V13.8625C10.5647 14.043 10.7095 14.1877 10.8949 14.1919H12.2338C13.2888 14.1919 14.1465 13.3448 14.1465 12.3038V6.17561C14.1416 5.81736 13.9709 5.48019 13.678 5.25611L9.04676 1.56265C8.4251 1.07024 7.55547 1.07024 6.9317 1.56405L2.33208 5.25471C2.02792 5.48581 1.85723 5.82298 1.85372 6.18755V12.3038C1.85372 13.3448 2.7114 14.1919 3.76648 14.1919H5.11798C5.30835 14.1919 5.46288 14.0409 5.46288 13.8555C5.46288 13.8147 5.4678 13.774 5.47623 13.7353V11.7018C5.47623 10.8665 6.16041 10.1838 6.99984 10.1781H9.03061ZM12.2338 15.2454H10.8823C10.1082 15.2272 9.51108 14.6196 9.51108 13.8623V11.7016C9.51108 11.4424 9.29543 11.2317 9.03061 11.2317H7.00335C6.74415 11.2331 6.5299 11.4445 6.5299 11.7016V13.8553C6.5299 13.908 6.52288 13.9586 6.50812 14.0063C6.43226 14.7017 5.83799 15.2454 5.11798 15.2454H3.76648C2.13048 15.2454 0.800049 13.9255 0.800049 12.3036V6.18248C0.807073 5.48425 1.12879 4.84502 1.68443 4.42426L6.27491 0.739927C7.28573 -0.0608612 8.69414 -0.0608612 9.70285 0.738522L14.3263 4.42636C14.8693 4.8401 15.1911 5.47793 15.2002 6.16773V12.3036C15.2002 13.9255 13.8698 15.2454 12.2338 15.2454Z"
            fill="#737373" />
    </g>
</svg>
    