<svg width="25" height="25" viewBox="0 0 25 25" fill="none" xmlns="http://www.w3.org/2000/svg">
    <g clip-path="url(#clip0_784_43040)">
        <path fill-rule="evenodd" clip-rule="evenodd"
            d="M12.907 3.32019C7.84503 3.32019 3.72699 7.43823 3.72699 12.5002C3.72699 17.5622 7.84503 21.6802 12.907 21.6802C17.969 21.6802 22.087 17.5622 22.087 12.5002C22.087 7.43823 17.969 3.32019 12.907 3.32019ZM12.907 23.3002C6.95187 23.3002 2.10699 18.4553 2.10699 12.5002C2.10699 6.54507 6.95187 1.7002 12.907 1.7002C18.8621 1.7002 23.707 6.54507 23.707 12.5002C23.707 18.4553 18.8621 23.3002 12.907 23.3002Z"
            fill="#737373" />
        <path fill-rule="evenodd" clip-rule="evenodd"
            d="M12.9006 13.9833C12.4535 13.9833 12.0906 13.6205 12.0906 13.1733V8.40082C12.0906 7.9537 12.4535 7.59082 12.9006 7.59082C13.3478 7.59082 13.7106 7.9537 13.7106 8.40082V13.1733C13.7106 13.6205 13.3478 13.9833 12.9006 13.9833Z"
            fill="#737373" />
        <path fill-rule="evenodd" clip-rule="evenodd"
            d="M12.9113 17.6795C12.3141 17.6795 11.8259 17.1968 11.8259 16.5995C11.8259 16.0023 12.3044 15.5195 12.9005 15.5195H12.9113C13.5086 15.5195 13.9913 16.0023 13.9913 16.5995C13.9913 17.1968 13.5086 17.6795 12.9113 17.6795Z"
            fill="#737373" />
        <rect x="13.867" y="0.5" width="11.04" height="11.04" rx="5.52" fill="#B12F30" />
    </g>
    <defs>
        <clipPath id="clip0_784_43040">
            <rect width="24" height="24" fill="white" transform="translate(0.906982 0.5)" />
        </clipPath>
    </defs>
</svg>
    