<svg width="128" height="44" viewBox="0 0 128 44" fill="none" xmlns="http://www.w3.org/2000/svg">
<g clip-path="url(#clip0_1506_40562)" filter="url(#filter0_d_1506_40562)">
<path d="M80.1955 0.0664062C79.2866 0.0664062 78.5486 0.806803 78.5486 1.71873V7.00653C78.5486 9.01068 76.9227 10.642 74.9251 10.642C72.9276 10.642 71.3016 9.01068 71.3016 7.00653V1.71873C71.3016 0.806803 70.5636 0.0664062 69.6547 0.0664062C68.7458 0.0664062 68.0078 0.806803 68.0078 1.71873V7.00653C68.0078 10.8328 71.1097 13.9467 74.9251 13.9467C78.7405 13.9467 81.8424 10.8345 81.8424 7.00653V1.71873C81.8424 1.50175 81.7998 1.28689 81.7171 1.08642C81.6343 0.885946 81.513 0.703795 81.3601 0.550362C81.2071 0.396929 81.0256 0.27522 80.8258 0.192182C80.626 0.109145 80.4118 0.0664062 80.1955 0.0664062Z" fill="url(#paint0_linear_1506_40562)"/>
<path d="M106.544 13.9452C107.453 13.9452 108.191 13.2048 108.191 12.2929C108.191 11.3809 107.453 10.6405 106.544 10.6405C104.547 10.6405 102.921 9.00922 102.921 7.00507C102.921 5.00092 104.547 3.3696 106.544 3.3696C108.542 3.3696 110.168 5.00092 110.168 7.00507V12.2929C110.168 13.2048 110.906 13.9452 111.815 13.9452C112.724 13.9452 113.462 13.2048 113.462 12.2929V7.00507C113.462 3.17881 110.36 0.0649414 106.544 0.0649414C102.729 0.0649414 99.627 3.17706 99.627 7.00507C99.627 10.8331 102.731 13.9452 106.544 13.9452Z" fill="url(#paint1_linear_1506_40562)"/>
<path d="M106.543 21.2144C102.73 21.2144 99.6259 24.3265 99.6259 28.1545C99.6259 30.1586 97.9999 31.79 96.0024 31.79C95.0934 31.79 94.3555 32.5304 94.3555 33.4423C94.3555 34.3542 95.0934 35.0946 96.0024 35.0946C99.816 35.0946 102.92 31.9825 102.92 28.1545C102.92 26.1503 104.546 24.519 106.543 24.519C107.452 24.519 108.19 23.7786 108.19 22.8667C108.19 21.9548 107.452 21.2144 106.543 21.2144Z" fill="url(#paint2_linear_1506_40562)"/>
<path d="M80.1955 15.9282C79.2866 15.9282 78.5486 16.6686 78.5486 17.5806V22.8683V28.1561C78.5486 30.1603 76.9227 31.7916 74.9251 31.7916C72.9276 31.7916 71.3016 30.1603 71.3016 28.1561C71.3016 26.152 72.9276 24.5207 74.9251 24.5207C75.8341 24.5207 76.572 23.7803 76.572 22.8683C76.572 21.9564 75.8341 21.216 74.9251 21.216C71.1114 21.216 68.0078 24.3281 68.0078 28.1561C68.0078 31.9842 71.1097 35.0963 74.9251 35.0963C78.7405 35.0963 81.8424 31.9842 81.8424 28.1561V22.8683V17.5806C81.8424 16.6669 81.1062 15.9282 80.1955 15.9282Z" fill="url(#paint3_linear_1506_40562)"/>
<path d="M101.275 15.9283C99.2772 15.9283 97.6512 14.297 97.6512 12.2929V7.00507C97.6512 3.17881 94.5493 0.0649414 90.7339 0.0649414C86.9202 0.0649414 83.8184 3.17706 83.8184 7.00507V12.2929C83.8184 13.2048 84.5563 13.9452 85.4653 13.9452C86.3742 13.9452 87.1121 13.2048 87.1121 12.2929V7.00507C87.1121 5.00092 88.7381 3.3696 90.7357 3.3696C92.7332 3.3696 94.3592 5.00092 94.3592 7.00507V12.2929C94.3592 16.1191 97.4611 19.233 101.276 19.233C102.185 19.233 102.923 18.4926 102.923 17.5807C102.923 16.6687 102.184 15.9283 101.275 15.9283Z" fill="url(#paint4_linear_1506_40562)"/>
<path d="M90.7339 31.788C88.7364 31.788 87.1104 30.1567 87.1104 28.1525C87.1104 26.1484 88.7364 24.5171 90.7339 24.5171C92.1383 24.5171 93.3595 25.324 93.9597 26.5002H90.7339C89.825 26.5002 89.087 27.2406 89.087 28.1525C89.087 29.0645 89.825 29.8049 90.7339 29.8049H96.0043C96.9133 29.8049 97.6512 29.0645 97.6512 28.1525C97.6512 24.3263 94.5493 21.2124 90.7339 21.2124C86.9202 21.2124 83.8184 24.3245 83.8184 28.1525C83.8184 31.9805 86.9202 35.0927 90.7339 35.0927C91.6429 35.0927 92.3808 34.3523 92.3808 33.4403C92.3808 33.0021 92.2073 32.5818 91.8985 32.272C91.5896 31.9621 91.1707 31.788 90.7339 31.788Z" fill="url(#paint5_linear_1506_40562)"/>
<path d="M119.917 27.1111C120.824 25.9366 121.365 24.4645 121.365 22.8665C121.365 21.9545 120.627 21.2141 119.718 21.2141C118.809 21.2141 118.071 21.9545 118.071 22.8665C118.071 24.8706 116.445 26.5019 114.447 26.5019H113.46V18.4643C113.46 17.5524 112.722 16.812 111.813 16.812C110.904 16.812 110.166 17.5524 110.166 18.4643V33.4421C110.166 34.354 110.904 35.0944 111.813 35.0944C112.722 35.0944 113.46 34.354 113.46 33.4421V29.8066H117.083C119.081 29.8066 120.707 31.4379 120.707 33.4421C120.707 34.354 121.445 35.0944 122.354 35.0944C123.263 35.0944 124.001 34.354 124.001 33.4421C124.001 30.6275 122.322 28.198 119.917 27.1111Z" fill="url(#paint6_linear_1506_40562)"/>
<path d="M60.865 17.5803C60.865 27.2895 53.0213 35.159 43.344 35.159H31.2017C32.4072 34.4886 33.5359 33.6975 34.5722 32.8013C37.9428 29.8905 40.3381 25.8734 41.1964 21.3173C41.8493 21.6954 42.5901 21.8941 43.344 21.8931C45.7184 21.8931 47.6427 19.9625 47.6427 17.5803C47.6427 15.1981 45.7184 13.2657 43.344 13.2657C42.5901 13.2647 41.8493 13.4634 41.1964 13.8415C39.9107 14.5872 39.0454 15.9805 39.0454 17.5785C39.0454 23.1481 36.4634 28.1139 32.4334 31.3345C30.516 32.8678 28.2725 34.0056 25.8231 34.6252C24.4466 34.9735 23.0073 35.159 21.5227 35.159C20.038 35.159 18.5987 34.9735 17.2223 34.6252C9.62456 32.7033 4 25.7999 4 17.5803V7.86761L4.08723 7.71183C4.02966 7.36001 4 6.99944 4 6.63186C4 2.97014 6.95883 -0.000202777 10.6103 -0.000202777C10.9703 -0.000478295 11.3297 0.0287918 11.6849 0.0873146C12.7962 0.269351 13.8151 0.729692 14.6682 1.39482C16.2226 2.60957 17.2205 4.50344 17.2205 6.63186V17.5803C17.2205 19.9625 19.1465 21.8931 21.5209 21.8931C23.8953 21.8931 25.8214 19.9625 25.8214 17.5803V6.63186C25.8214 4.50344 26.821 2.60782 28.3754 1.39482C29.2268 0.727942 30.2456 0.2676 31.3569 0.0855643C31.7076 0.0278028 32.067 -0.00195312 32.4316 -0.00195312H43.344C53.0195 -0.000202777 60.865 7.86936 60.865 17.5803Z" fill="url(#paint7_linear_1506_40562)"/>
</g>
<defs>
<filter id="filter0_d_1506_40562" x="0" y="0" width="128" height="43.1592" filterUnits="userSpaceOnUse" color-interpolation-filters="sRGB">
<feFlood flood-opacity="0" result="BackgroundImageFix"/>
<feColorMatrix in="SourceAlpha" type="matrix" values="0 0 0 0 0 0 0 0 0 0 0 0 0 0 0 0 0 0 127 0" result="hardAlpha"/>
<feOffset dy="4"/>
<feGaussianBlur stdDeviation="2"/>
<feComposite in2="hardAlpha" operator="out"/>
<feColorMatrix type="matrix" values="0 0 0 0 0 0 0 0 0 0 0 0 0 0 0 0 0 0 0.25 0"/>
<feBlend mode="normal" in2="BackgroundImageFix" result="effect1_dropShadow_1506_40562"/>
<feBlend mode="normal" in="SourceGraphic" in2="effect1_dropShadow_1506_40562" result="shape"/>
</filter>
<linearGradient id="paint0_linear_1506_40562" x1="6.68996" y1="7.00549" x2="121.773" y2="7.00549" gradientUnits="userSpaceOnUse">
<stop stop-color="#0063DD"/>
<stop offset="0.5" stop-color="#008CFF"/>
<stop offset="1" stop-color="#0063DD"/>
</linearGradient>
<linearGradient id="paint1_linear_1506_40562" x1="6.69012" y1="7.00577" x2="121.773" y2="7.00577" gradientUnits="userSpaceOnUse">
<stop stop-color="#0063DD"/>
<stop offset="0.5" stop-color="#008CFF"/>
<stop offset="1" stop-color="#0063DD"/>
</linearGradient>
<linearGradient id="paint2_linear_1506_40562" x1="6.68905" y1="28.154" x2="121.772" y2="28.154" gradientUnits="userSpaceOnUse">
<stop stop-color="#0063DD"/>
<stop offset="0.5" stop-color="#008CFF"/>
<stop offset="1" stop-color="#0063DD"/>
</linearGradient>
<linearGradient id="paint3_linear_1506_40562" x1="6.68996" y1="25.5103" x2="121.773" y2="25.5103" gradientUnits="userSpaceOnUse">
<stop stop-color="#0063DD"/>
<stop offset="0.5" stop-color="#008CFF"/>
<stop offset="1" stop-color="#0063DD"/>
</linearGradient>
<linearGradient id="paint4_linear_1506_40562" x1="6.68925" y1="9.64932" x2="121.772" y2="9.64932" gradientUnits="userSpaceOnUse">
<stop stop-color="#0063DD"/>
<stop offset="0.5" stop-color="#008CFF"/>
<stop offset="1" stop-color="#0063DD"/>
</linearGradient>
<linearGradient id="paint5_linear_1506_40562" x1="6.68924" y1="28.1538" x2="121.772" y2="28.1538" gradientUnits="userSpaceOnUse">
<stop stop-color="#0063DD"/>
<stop offset="0.5" stop-color="#008CFF"/>
<stop offset="1" stop-color="#0063DD"/>
</linearGradient>
<linearGradient id="paint6_linear_1506_40562" x1="6.69" y1="25.952" x2="121.773" y2="25.952" gradientUnits="userSpaceOnUse">
<stop stop-color="#0063DD"/>
<stop offset="0.5" stop-color="#008CFF"/>
<stop offset="1" stop-color="#0063DD"/>
</linearGradient>
<linearGradient id="paint7_linear_1506_40562" x1="6.68946" y1="17.5796" x2="121.773" y2="17.5796" gradientUnits="userSpaceOnUse">
<stop stop-color="#0063DD"/>
<stop offset="0.5" stop-color="#008CFF"/>
<stop offset="1" stop-color="#0063DD"/>
</linearGradient>
<clipPath id="clip0_1506_40562">
<rect width="120" height="35.1592" fill="white" transform="translate(4)"/>
</clipPath>
</defs>
</svg>
