<svg width="25" height="25" viewBox="0 0 25 25" fill="none" xmlns="http://www.w3.org/2000/svg">
    <g clip-path="url(#clip0_784_43052)">
        <mask id="mask0_784_43052" style="mask-type:luminance" maskUnits="userSpaceOnUse" x="3"
            y="1" width="20" height="19">
            <path fill-rule="evenodd" clip-rule="evenodd"
                d="M3.547 1.7002H22.1299V19.1289H3.547V1.7002Z" fill="white" />
        </mask>
        <g mask="url(#mask0_784_43052)">
            <path fill-rule="evenodd" clip-rule="evenodd"
                d="M12.8371 3.20717C9.32582 3.20717 6.87849 5.95791 6.87849 8.42634C6.87849 10.515 6.29881 11.4805 5.78643 12.3324C5.37553 13.0166 5.05103 13.5571 5.05103 14.7315C5.21881 16.6263 6.4696 17.6219 12.8371 17.6219C19.1694 17.6219 20.4594 16.5821 20.6261 14.6662C20.6231 13.5571 20.2986 13.0166 19.8877 12.3324C19.3753 11.4805 18.7957 10.515 18.7957 8.42634C18.7957 5.95791 16.3483 3.20717 12.8371 3.20717ZM12.837 19.1289C8.13927 19.1289 3.89362 18.7973 3.54701 14.7958C3.544 13.1402 4.04934 12.2983 4.4954 11.5568C4.94649 10.8053 5.37146 10.0971 5.37146 8.42633C5.37146 5.1783 8.37135 1.7002 12.837 1.7002C17.3027 1.7002 20.3026 5.1783 20.3026 8.42633C20.3026 10.0971 20.7276 10.8053 21.1786 11.5568C21.6247 12.2983 22.13 13.1402 22.13 14.7315C21.7794 18.7973 17.5348 19.1289 12.837 19.1289Z"
                fill="#737373" />
        </g>
        <path fill-rule="evenodd" clip-rule="evenodd"
            d="M12.7878 23.3H12.7858C11.6596 23.299 10.5936 22.8027 9.78487 21.9015C9.50659 21.5931 9.5317 21.1159 9.84113 20.8386C10.1506 20.5593 10.6268 20.5844 10.9051 20.8949C11.4255 21.4745 12.0936 21.793 12.7868 21.793H12.7878C13.484 21.793 14.1551 21.4745 14.6765 20.8939C14.9558 20.5854 15.432 20.5603 15.7404 20.8386C16.0499 21.1169 16.075 21.5941 15.7967 21.9025C14.9849 22.8037 13.917 23.3 12.7878 23.3Z"
            fill="#737373" />
        <rect x="13.867" y="0.5" width="11.04" height="11.04" rx="5.52" fill="#F6CF7D" />
    </g>
    <defs>
        <clipPath id="clip0_784_43052">
            <rect width="24" height="24" fill="white" transform="translate(0.906982 0.5)" />
        </clipPath>
    </defs>
</svg>
    