<svg width="16" height="17" viewBox="0 0 16 17" fill="none" xmlns="http://www.w3.org/2000/svg">
    <path fill-rule="evenodd" clip-rule="evenodd"
        d="M7.95715 9.15456H7.98034C10.1023 9.15456 11.8278 7.42905 11.8278 5.30713C11.8278 3.18522 10.1023 1.45898 7.98034 1.45898C5.8577 1.45898 4.13146 3.18522 4.13146 5.30496C4.12422 7.42108 5.83958 9.14803 7.95715 9.15456ZM5.16633 5.30713C5.16633 3.75555 6.42876 2.49385 7.98034 2.49385C9.53119 2.49385 10.7929 3.75555 10.7929 5.30713C10.7929 6.85799 9.53119 8.12041 7.98034 8.12041H7.95932C6.41426 8.11461 5.16126 6.85364 5.16633 5.30713Z"
        fill="#737373" />
    <path fill-rule="evenodd" clip-rule="evenodd"
        d="M2.23999 13.1798C2.23999 15.859 6.56064 15.859 7.98033 15.859C10.4436 15.859 13.7192 15.5829 13.7192 13.1943C13.7192 10.5151 9.40001 10.5151 7.98033 10.5151C5.51635 10.5151 2.23999 10.7912 2.23999 13.1798ZM3.32704 13.1798C3.32704 12.1326 4.89239 11.6021 7.98033 11.6021C11.0675 11.6021 12.6322 12.1377 12.6322 13.1943C12.6322 14.2415 11.0675 14.7719 7.98033 14.7719C4.89239 14.7719 3.32704 14.2364 3.32704 13.1798Z"
        fill="#737373" />
</svg>
    