<svg width="25" height="25" viewBox="0 0 25 25" fill="none" xmlns="http://www.w3.org/2000/svg">
    <g clip-path="url(#clip0_784_43034)">
        <path fill-rule="evenodd" clip-rule="evenodd"
            d="M18.1128 15.4331L18.184 15.378C19.8566 14.0814 21.2077 12.4165 22.1323 10.5129C23.0569 8.6092 23.53 6.51796 23.515 4.40169L23.515 4.40089C23.514 4.06977 23.4477 3.74209 23.3198 3.43665C23.1919 3.13122 23.005 2.85402 22.7698 2.62097C22.5345 2.38792 22.2556 2.20359 21.949 2.07855C21.6424 1.95351 21.3141 1.89023 20.983 1.89232L20.9806 1.89233C18.8684 1.87976 16.7816 2.35416 14.8824 3.27869C12.9831 4.20322 11.3225 5.553 10.0294 7.22326L9.97425 7.29449L9.88422 7.29761C8.48253 7.34607 7.10773 7.69585 5.85333 8.32316C4.76973 8.8966 3.86487 9.75725 3.23792 10.8108C2.61059 11.865 2.28573 13.0716 2.29897 14.2982L2.299 14.3003L2.29898 15.0083H7.05791C7.9427 15.0126 8.79004 15.366 9.41569 15.9916C10.0413 16.6173 10.3947 17.4646 10.399 18.3494L10.399 18.3503L10.399 23.1083H11.1091C12.3357 23.1216 13.5423 22.7967 14.5965 22.1694C15.6501 21.5424 16.5107 20.6376 17.0841 19.554C17.7115 18.2996 18.0612 16.9248 18.1097 15.5231L18.1128 15.4331ZM3.75886 13.5923L3.79281 13.3712C3.91503 12.5749 4.22203 11.8184 4.68921 11.1621C5.15639 10.5058 5.77076 9.96801 6.48313 9.59184L6.48492 9.59089L6.48673 9.58999C7.07053 9.29727 7.68689 9.0746 8.32298 8.92662L8.78984 8.818L8.52706 9.21888C7.63805 10.5751 6.85777 11.9996 6.19354 13.479L6.14264 13.5923H3.75886ZM16.5893 16.6175L16.4807 17.0843C16.3327 17.7204 16.11 18.3368 15.8173 18.9206L15.8164 18.9224L15.8155 18.9242C15.4393 19.6365 14.9015 20.2509 14.2452 20.7181C13.589 21.1853 12.8324 21.4923 12.0361 21.6145L11.815 21.6484V19.2647L11.9283 19.2138C13.4077 18.5495 14.8322 17.7693 16.1884 16.8802L16.5893 16.6175ZM22.0991 4.37515L22.0989 4.38056C22.0321 6.73953 21.5485 8.72415 20.5406 10.5051C19.5334 12.2847 18.0099 13.848 15.8828 15.3761L15.8803 15.3778C14.6538 16.2297 13.3589 16.9788 12.009 17.6176L11.7838 17.7242L11.7381 17.4792C11.5622 16.5346 11.1044 15.6654 10.425 14.9859C9.74555 14.3065 8.87634 13.8487 7.93173 13.6728L7.68675 13.6271L7.79333 13.4019C8.43206 12.052 9.18119 10.7572 10.0331 9.53059L10.0347 9.52824C11.561 7.39929 13.1234 5.87491 14.8993 4.86727C16.6766 3.85885 18.655 3.37525 21.0015 3.3084L21.0042 3.30832L21.0069 3.30832C21.2913 3.30821 21.5645 3.41905 21.7685 3.61728C21.9724 3.8155 22.0909 4.08546 22.0989 4.36975L22.0991 4.37515ZM6.79898 19.7008L6.60698 19.7003L6.79877 19.6998L6.47863 18.9278C6.27389 18.7234 5.99636 18.6085 5.70698 18.6085C5.41743 18.6085 5.13972 18.7235 4.93494 18.9282L4.91583 18.9473L4.90273 18.971C4.5496 19.6085 4.30158 20.2987 4.16823 21.0152L4.11699 21.2905L4.39225 21.2391C5.10891 21.1051 5.79937 20.8569 6.43719 20.5037L6.4607 20.4907L6.47973 20.4717C6.58127 20.3705 6.66177 20.2502 6.71656 20.1177C6.77129 19.9854 6.7993 19.8435 6.79899 19.7003L6.79898 19.7008ZM17.5122 10.8055C17.8982 10.4196 18.115 9.89614 18.115 9.35032C18.115 8.80451 17.8982 8.28104 17.5122 7.8951C17.1263 7.50915 16.6028 7.29232 16.057 7.29232C15.5112 7.29232 14.9877 7.50915 14.6018 7.8951C14.2158 8.28104 13.999 8.80451 13.999 9.35032C13.999 9.89614 14.2158 10.4196 14.6018 10.8055C14.9877 11.1915 15.5112 11.4083 16.057 11.4083C16.6028 11.4083 17.1263 11.1915 17.5122 10.8055ZM7.48073 21.4737C7.94779 21.0017 8.20977 20.3644 8.20977 19.7003C8.20977 19.037 7.94835 18.4003 7.48225 17.9284C7.00383 17.4726 6.36841 17.2183 5.70757 17.2181C5.04663 17.218 4.41099 17.4721 3.93233 17.9278C3.75268 18.1083 3.58032 18.3895 3.42 18.7399C3.26044 19.0887 3.11852 19.4932 2.99503 19.908C2.7481 20.7373 2.57906 21.5933 2.48958 22.097L2.48953 22.0973L2.31467 23.0926L3.31017 22.9177C3.81374 22.8287 4.66992 22.6597 5.49929 22.4126C5.91406 22.2891 6.31855 22.1471 6.66733 21.9874C7.01857 21.8267 7.30028 21.6538 7.48073 21.4737ZM16.027 10.5804C16.6897 10.5804 17.227 10.0431 17.227 9.38037C17.227 8.71763 16.6897 8.18037 16.027 8.18037C15.3642 8.18037 14.827 8.71763 14.827 9.38037C14.827 10.0431 15.3642 10.5804 16.027 10.5804Z"
            fill="#737373" />
    </g>
    <defs>
        <clipPath id="clip0_784_43034">
            <rect width="21.6" height="21.6" fill="white" transform="translate(2.10699 1.7002)" />
        </clipPath>
    </defs>
</svg>
    